<?xml version="1.0" encoding="UTF-8"?> <svg xmlns="http://www.w3.org/2000/svg" width="260" height="99.075" viewBox="0 0 260 99.075"><g id="Group_114" data-name="Group 114" transform="translate(5510.129 -8882.19)"><path id="Path_438" data-name="Path 438" d="M58.612,2428.188a4.177,4.177,0,0,1-2.637.7,4.376,4.376,0,0,1-2.867-.847,3.134,3.134,0,0,1-1.026-2.564v-.021a3.183,3.183,0,0,1,1.068-2.637,4.552,4.552,0,0,1,2.93-.858,4.083,4.083,0,0,1,2.491.659,2.589,2.589,0,0,1,1.046,1.726H65.1a6.91,6.91,0,0,0-4.6-6.09,12.122,12.122,0,0,0-2.082-.544,13.976,13.976,0,0,0-2.355-.189,11.472,11.472,0,0,0-4.793.943,7.363,7.363,0,0,0-3.223,2.72,6.972,6.972,0,0,0-.879,1.968,8.738,8.738,0,0,0-.293,2.323v.042a8.283,8.283,0,0,0,1.078,4.447,6.333,6.333,0,0,0,3.087,2.542,11.207,11.207,0,0,0,2.208.607,15.131,15.131,0,0,0,2.585.209,10.876,10.876,0,0,0,6.593-1.779,6.952,6.952,0,0,0,2.721-5.253h-5.5A2.751,2.751,0,0,1,58.612,2428.188Z" transform="translate(-5557 6528.238)" fill="#00c165"></path><path id="Path_439" data-name="Path 439" d="M122.593,2427.755h8.644v-2.994h-8.644v-2.008h9.669v-3.914H117.78v15.006h14.8v-4.06h-9.983Z" transform="translate(-5607.565 6527.3)" fill="#00c165"></path><path id="Path_440" data-name="Path 440" d="M192.813,2426.227a3.946,3.946,0,0,0,.722-2.469,4.834,4.834,0,0,0-.743-2.783,4.381,4.381,0,0,0-2.438-1.612,11.845,11.845,0,0,0-1.968-.388,21.615,21.615,0,0,0-2.553-.136h-8.309v15.006h4.939v-4.269h3.014a3.419,3.419,0,0,1,2.061.449,2.086,2.086,0,0,1,.555,1.685v1.13a1.667,1.667,0,0,0,.1.564.765.765,0,0,0,.4.44h5.295a.95.95,0,0,1-.419-.461,1.575,1.575,0,0,1-.125-.627v-.963a5.287,5.287,0,0,0-.607-2.815,3.367,3.367,0,0,0-2.177-1.329A4.4,4.4,0,0,0,192.813,2426.227Zm-4.363-1.842a1.122,1.122,0,0,1-.722,1.162,5.282,5.282,0,0,1-1.894.283h-3.37v-3.035H185.9a4.639,4.639,0,0,1,1.936.3,1.152,1.152,0,0,1,.617,1.141Z" transform="translate(-5650.17 6527.3)" fill="#00c165"></path><path id="Path_441" data-name="Path 441" d="M256.444,2429.786h-9.983v-2.03h8.644v-2.994h-8.644v-2.008h9.669v-3.914H241.648v15.006h14.8Z" transform="translate(-5695.896 6527.3)" fill="#00c165"></path><path id="Path_442" data-name="Path 442" d="M316.014,2432.862a3.461,3.461,0,0,0,1.978-3.37v-.042a2.96,2.96,0,0,0-.847-2.312,5.227,5.227,0,0,0-2.69-1.057,4.66,4.66,0,0,0,2.323-1.025,2.76,2.76,0,0,0,.8-2.135v-.063a3.219,3.219,0,0,0-1.758-3.1,12.94,12.94,0,0,0-5.672-.921h-8.748v15.006h8.957A13.036,13.036,0,0,0,316.014,2432.862Zm-9.617-10.381h3.495a5.644,5.644,0,0,1,1.926.23.881.881,0,0,1,.565.9v.042a.868.868,0,0,1-.628.879,5.472,5.472,0,0,1-1.8.23H306.4Zm0,7.555v-2.428h3.328a7.154,7.154,0,0,1,2.292.24.93.93,0,0,1,.6.953v.042a1,1,0,0,1-.241.7,1.54,1.54,0,0,1-.89.365,6.1,6.1,0,0,1-.785.094q-.471.031-1.1.032Z" transform="translate(-5738.503 6527.3)" fill="#00c165"></path><path id="Path_443" data-name="Path 443" d="M382.486,2433.385a1.576,1.576,0,0,1-.125-.627v-.963a5.29,5.29,0,0,0-.607-2.815,3.368,3.368,0,0,0-2.177-1.329,4.4,4.4,0,0,0,2.25-1.423,3.948,3.948,0,0,0,.722-2.469,4.834,4.834,0,0,0-.743-2.783,4.381,4.381,0,0,0-2.438-1.612,11.841,11.841,0,0,0-1.968-.388,21.607,21.607,0,0,0-2.553-.136h-8.309v15.006h4.939v-4.269h3.014a3.421,3.421,0,0,1,2.061.449,2.087,2.087,0,0,1,.555,1.685v1.13a1.666,1.666,0,0,0,.1.564.763.763,0,0,0,.4.44H382.9A.951.951,0,0,1,382.486,2433.385Zm-5.023-9a1.122,1.122,0,0,1-.722,1.162,5.281,5.281,0,0,1-1.894.283h-3.37v-3.035h3.432a4.637,4.637,0,0,1,1.936.3,1.151,1.151,0,0,1,.617,1.141Z" transform="translate(-5784.957 6527.3)" fill="#00c165"></path><path id="Path_444" data-name="Path 444" d="M438.258,2418.839H432.5l-6.8,15.006h5.295l1.068-2.574h6.613l1.088,2.574h5.254Zm-4.73,8.874,1.821-4.374,1.842,4.374Z" transform="translate(-5827.145 6527.3)" fill="#00c165"></path><path id="Path_445" data-name="Path 445" d="M502.934,2418.839H497.7v15.006h13.667v-4.709h-8.435Z" transform="translate(-5878.49 6527.3)" fill="#00c165"></path><path id="Path_446" data-name="Path 446" d="M585.36,2424.678a5.248,5.248,0,0,0-1.842-4.384q-1.842-1.455-6.07-1.455h-8.037v15.006h4.876v-3.6h3.349q3.935.021,5.828-1.381A4.875,4.875,0,0,0,585.36,2424.678Zm-5.619,1.287a4.958,4.958,0,0,1-2.271.366h-3.181v-3.37h3.119a5.8,5.8,0,0,1,2.271.325,1.392,1.392,0,0,1,.7,1.412A1.338,1.338,0,0,1,579.74,2425.966Z" transform="translate(-5929.627 6527.3)" fill="#00c165"></path><path id="Path_447" data-name="Path 447" d="M628.447,2418.839l-6.8,15.006h5.295l1.068-2.574h6.614l1.088,2.574h5.253l-6.76-15.006Zm1.026,8.874,1.821-4.374,1.841,4.374Z" transform="translate(-5966.875 6527.3)" fill="#00c165"></path><path id="Path_448" data-name="Path 448" d="M693.646,2418.839v15.006h13.667v-4.709h-8.435v-10.3Z" transform="translate(-6018.22 6527.3)" fill="#00c165"></path><path id="Path_449" data-name="Path 449" d="M752,2421.336a4.446,4.446,0,0,1,2.03-.324,7.536,7.536,0,0,1,2.48.334,1.724,1.724,0,0,1,1.161,1.277h5.337a5.955,5.955,0,0,0-2.836-4.1,12.347,12.347,0,0,0-6-1.214,10.258,10.258,0,0,0-5.8,1.382,4.327,4.327,0,0,0-2.03,3.767,3.573,3.573,0,0,0,1.643,3.307,11.4,11.4,0,0,0,5.033,1.235q2.051.126,3.129.251a4.249,4.249,0,0,1,1.475.355.767.767,0,0,1,.293.283.792.792,0,0,1,.1.408.9.9,0,0,1-.649.858,5.758,5.758,0,0,1-2.072.272,7.555,7.555,0,0,1-2.585-.387,1.989,1.989,0,0,1-1.329-1.413h-5.588a6.935,6.935,0,0,0,1.308,3.087,5.731,5.731,0,0,0,2.856,1.853,12.007,12.007,0,0,0,2.208.471,22.527,22.527,0,0,0,2.794.157,13.669,13.669,0,0,0,4.625-.659,5.408,5.408,0,0,0,2.637-1.832,4.089,4.089,0,0,0,.649-1.276,5.109,5.109,0,0,0,.209-1.486,3.873,3.873,0,0,0-.785-2.543,4.777,4.777,0,0,0-2.4-1.434,15.7,15.7,0,0,0-1.821-.388,21.9,21.9,0,0,0-2.24-.219q-1.444-.083-2.323-.188a9.752,9.752,0,0,1-1.34-.23,1.2,1.2,0,0,1-.6-.314.692.692,0,0,1-.157-.46A.951.951,0,0,1,752,2421.336Z" transform="translate(-6055.414 6528.393)" fill="#00c165"></path><path id="Path_450" data-name="Path 450" d="M816.208,2433.846V2427.9l6.53-9.062h-5.63l-3.391,4.918-3.244-4.918h-5.651l6.216,9.042v5.965Z" transform="translate(-6097.5 6527.3)" fill="#00c165"></path><path id="Path_451" data-name="Path 451" d="M872.06,2418.475a2.881,2.881,0,0,0-1.832.46,2.091,2.091,0,0,0-.554,1.674,3.361,3.361,0,0,0,.188,1.287,1.009,1.009,0,0,0,.649.576,2.223,2.223,0,0,0,.534.115,6.868,6.868,0,0,0,.7.032c.07,0,.143,0,.22-.011s.143-.01.2-.01a1.763,1.763,0,0,1-.607,1.2,3.207,3.207,0,0,1-1.465.513l.188,1.863a4.342,4.342,0,0,0,3.16-1.4,5.15,5.15,0,0,0,1.026-3.391,3.677,3.677,0,0,0-.524-2.271A2.33,2.33,0,0,0,872.06,2418.475Z" transform="translate(-6143.746 6527.56)" fill="#00c165"></path><path id="Path_452" data-name="Path 452" d="M902.767,2429.153a5.759,5.759,0,0,1-2.072.272,7.556,7.556,0,0,1-2.585-.387,1.989,1.989,0,0,1-1.329-1.413h-5.588a6.941,6.941,0,0,0,1.308,3.087,5.733,5.733,0,0,0,2.857,1.853,12,12,0,0,0,2.208.471,22.526,22.526,0,0,0,2.794.157,13.667,13.667,0,0,0,4.625-.659,5.407,5.407,0,0,0,2.637-1.832,4.075,4.075,0,0,0,.649-1.276,5.113,5.113,0,0,0,.209-1.486,3.871,3.871,0,0,0-.785-2.543,4.779,4.779,0,0,0-2.4-1.434,15.7,15.7,0,0,0-1.821-.388,21.908,21.908,0,0,0-2.239-.219q-1.444-.083-2.323-.188a9.765,9.765,0,0,1-1.339-.23,1.209,1.209,0,0,1-.6-.314.694.694,0,0,1-.157-.46.951.951,0,0,1,.565-.827,4.445,4.445,0,0,1,2.03-.324,7.537,7.537,0,0,1,2.48.334,1.725,1.725,0,0,1,1.161,1.277H908.4a5.956,5.956,0,0,0-2.836-4.1,12.35,12.35,0,0,0-6-1.214,10.256,10.256,0,0,0-5.8,1.382,4.327,4.327,0,0,0-2.03,3.767,3.573,3.573,0,0,0,1.643,3.307,11.4,11.4,0,0,0,5.033,1.235q2.051.126,3.129.251a4.252,4.252,0,0,1,1.475.355.765.765,0,0,1,.294.283.792.792,0,0,1,.1.408A.9.9,0,0,1,902.767,2429.153Z" transform="translate(-6159.091 6528.393)" fill="#00c165"></path><path id="Path_453" data-name="Path 453" d="M55.649,2496.118h4.395a2.279,2.279,0,0,1-1.224,1.34,5.935,5.935,0,0,1-2.585.46,3.933,3.933,0,0,1-2.878-.91,3.617,3.617,0,0,1-.911-2.669v-.021a3.636,3.636,0,0,1,1-2.857,4.221,4.221,0,0,1,2.888-.889,4.668,4.668,0,0,1,2.219.419,1.976,1.976,0,0,1,.984,1.213h5.672a5.967,5.967,0,0,0-2.742-4.573,11.568,11.568,0,0,0-6.132-1.433,11.383,11.383,0,0,0-4.793.942,7.119,7.119,0,0,0-3.181,2.783,6.992,6.992,0,0,0-.847,2.02,9.956,9.956,0,0,0-.282,2.438v.063q0,3.851,1.978,5.7A7.657,7.657,0,0,0,54.665,2502a6.581,6.581,0,0,0,4.05-1.089,5.029,5.029,0,0,0,1.769-3.495l.314,4.165h4.458v-8.225H55.649Z" transform="translate(-5557.26 6479.266)" fill="#00c165"></path><path id="Path_454" data-name="Path 454" d="M124.615,2487.512h-5.232v15.006H133.05v-4.709h-8.434Z" transform="translate(-5608.709 6478.329)" fill="#00c165"></path><path id="Path_455" data-name="Path 455" d="M185.949,2487.119a9.7,9.7,0,0,0-2.176-.691,12.885,12.885,0,0,0-2.491-.23,11.222,11.222,0,0,0-4.73.942,7.38,7.38,0,0,0-3.2,2.721,7,7,0,0,0-.858,1.947,8.737,8.737,0,0,0-.293,2.323v.042a8.124,8.124,0,0,0,1.1,4.416,6.533,6.533,0,0,0,3.129,2.574,10.735,10.735,0,0,0,2.229.628,15.077,15.077,0,0,0,2.585.21,12.272,12.272,0,0,0,4.751-.848A6.588,6.588,0,0,0,190,2496.6a9.564,9.564,0,0,0,.283-2.406v-.084a7.674,7.674,0,0,0-1.152-4.28A7.422,7.422,0,0,0,185.949,2487.119Zm-1.915,9.648a4.516,4.516,0,0,1-2.815.8,4.225,4.225,0,0,1-2.794-.848,3.123,3.123,0,0,1-1.016-2.543v-.021a3.278,3.278,0,0,1,1.026-2.648,4.2,4.2,0,0,1,2.8-.868,4.282,4.282,0,0,1,2.794.847,3.277,3.277,0,0,1,1.036,2.69A3.068,3.068,0,0,1,184.035,2496.768Z" transform="translate(-5646.372 6479.266)" fill="#00c165"></path><path id="Path_456" data-name="Path 456" d="M256.531,2494.753a4.662,4.662,0,0,0,2.323-1.025,2.758,2.758,0,0,0,.8-2.135v-.063a3.218,3.218,0,0,0-1.758-3.1,12.935,12.935,0,0,0-5.672-.921h-8.748v15.006h8.957a13.031,13.031,0,0,0,5.661-.984,3.461,3.461,0,0,0,1.978-3.37v-.042a2.96,2.96,0,0,0-.848-2.313A5.232,5.232,0,0,0,256.531,2494.753Zm-8.058-3.6h3.495a5.656,5.656,0,0,1,1.926.23.882.882,0,0,1,.565.9v.042a.868.868,0,0,1-.628.879,5.471,5.471,0,0,1-1.8.23h-3.558Zm6.216,6.362a1,1,0,0,1-.241.7,1.536,1.536,0,0,1-.89.366,6.242,6.242,0,0,1-.785.094q-.471.031-1.1.031h-3.2v-2.428H251.8a7.153,7.153,0,0,1,2.292.241.93.93,0,0,1,.6.953Z" transform="translate(-5697.197 6478.329)" fill="#00c165"></path><path id="Path_457" data-name="Path 457" d="M310.019,2487.512l-6.8,15.006h5.295l1.068-2.574h6.613l1.088,2.574h5.253l-6.76-15.006Zm1.026,8.873,1.821-4.374,1.842,4.374Z" transform="translate(-5739.802 6478.329)" fill="#00c165"></path><path id="Path_458" data-name="Path 458" d="M380.451,2487.512h-5.232v15.006h13.666v-4.709h-8.435Z" transform="translate(-5791.147 6478.329)" fill="#00c165"></path><path id="Path_459" data-name="Path 459" d="M489.226,2496.135l-7.2-8.623h-4.9v15.006h4.856V2493.6l7.367,8.916h4.709v-15.006h-4.834Z" transform="translate(-5863.819 6478.329)" fill="#00c165"></path><path id="Path_460" data-name="Path 460" d="M551.247,2496.427h8.644v-2.993h-8.644v-2.009h9.669v-3.914H546.433v15.006h14.8v-4.06h-9.983Z" transform="translate(-5913.241 6478.329)" fill="#00c165"></path><path id="Path_461" data-name="Path 461" d="M603.917,2491.907h4.856v10.611h5.148v-10.611h5.023v-4.4H603.917Z" transform="translate(-5954.232 6478.329)" fill="#00c165"></path><path id="Path_462" data-name="Path 462" d="M679.352,2496.427l-3.307-8.916h-4.061l-3.809,8.937-2.6-8.937h-5.274l4.772,15.006h4.835l3.914-8.916,3.286,8.916h4.793l5.881-15.006H682.6Z" transform="translate(-5994.444 6478.329)" fill="#00c165"></path><path id="Path_463" data-name="Path 463" d="M770.278,2487.119a9.692,9.692,0,0,0-2.176-.691,12.884,12.884,0,0,0-2.491-.23,11.222,11.222,0,0,0-4.73.942,7.379,7.379,0,0,0-3.2,2.721,7.01,7.01,0,0,0-.858,1.947,8.736,8.736,0,0,0-.293,2.323v.042a8.122,8.122,0,0,0,1.1,4.416,6.532,6.532,0,0,0,3.129,2.574,10.733,10.733,0,0,0,2.229.628,15.079,15.079,0,0,0,2.585.21,12.274,12.274,0,0,0,4.751-.848,6.588,6.588,0,0,0,4.008-4.552,9.567,9.567,0,0,0,.283-2.406v-.084a7.675,7.675,0,0,0-1.152-4.28A7.422,7.422,0,0,0,770.278,2487.119Zm-1.915,9.648a4.515,4.515,0,0,1-2.815.8,4.226,4.226,0,0,1-2.794-.848,3.123,3.123,0,0,1-1.015-2.543v-.021a3.278,3.278,0,0,1,1.026-2.648,4.2,4.2,0,0,1,2.8-.868,4.282,4.282,0,0,1,2.794.847,3.277,3.277,0,0,1,1.036,2.69A3.068,3.068,0,0,1,768.363,2496.768Z" transform="translate(-6063.061 6479.266)" fill="#00c165"></path><path id="Path_464" data-name="Path 464" d="M843.749,2502.057a1.571,1.571,0,0,1-.125-.627v-.963a5.287,5.287,0,0,0-.607-2.815,3.366,3.366,0,0,0-2.177-1.329,4.394,4.394,0,0,0,2.25-1.423,3.948,3.948,0,0,0,.722-2.469,4.837,4.837,0,0,0-.743-2.784,4.382,4.382,0,0,0-2.438-1.611,11.85,11.85,0,0,0-1.968-.388,21.617,21.617,0,0,0-2.553-.135H827.8v15.006h4.939v-4.27h3.014a3.416,3.416,0,0,1,2.061.45,2.086,2.086,0,0,1,.555,1.685v1.13a1.666,1.666,0,0,0,.1.565.767.767,0,0,0,.4.44h5.295A.953.953,0,0,1,843.749,2502.057Zm-5.023-9a1.123,1.123,0,0,1-.722,1.162,5.277,5.277,0,0,1-1.894.283h-3.37v-3.035h3.432a4.642,4.642,0,0,1,1.936.3,1.152,1.152,0,0,1,.618,1.141Z" transform="translate(-6113.886 6478.329)" fill="#00c165"></path><path id="Path_465" data-name="Path 465" d="M903.393,2493.309l5.986-5.8h-6.258l-6.174,5.986v-5.986h-5.023v15.006h5.023v-4.06l2.574-2.428,4.144,6.488h5.818Z" transform="translate(-6159.612 6478.329)" fill="#00c165"></path><path id="Path_466" data-name="Path 466" d="M90.223,2226.519l-.388,1.556c-1.682,6.723-10.623,8.2-13.926,8.2-11.336,0-15.375-7.227-15.375-13.991,0-9.386,5.639-14.556,15.878-14.556,10.3,0,12.747,6.569,12.767,6.625l.456,1.429h13.148l-.8-2.842c-2.127-7.753-8.377-17-26.075-17-17.913,0-28.607,9.471-28.607,25.335,0,16.52,10.7,26.782,27.914,26.782,9.062,0,24.693-2.486,27.57-19.134l.415-2.4Z" transform="translate(-5557.308 6686.251)" fill="#fff"></path><path id="Path_467" data-name="Path 467" d="M266,2232h14.494c7.865,0,22.5,0,22.5-16.023,0-16.085-14.639-16.085-22.5-16.085H252.957v49.852H266Zm23.955-16.086c0,3.457-1.474,4.3-7.51,4.3H266v-8.539h16.444C288.869,2211.673,289.955,2212.731,289.955,2215.911Z" transform="translate(-5703.961 6683.436)" fill="#fff"></path><path id="Path_468" data-name="Path 468" d="M461.109,2236.775c-6.255,0-9.074-2.95-9.626-5.71l-.331-1.651H438.934l.115,2.164c.207,3.865,2.462,16.479,22.816,16.479,6.744,0,12.4-1.62,16.359-4.685a14.67,14.67,0,0,0,5.893-11.779,13.173,13.173,0,0,0-5.57-11.126,11.692,11.692,0,0,0,4.437-9.512c0-9.4-7.942-15.016-21.245-15.016-17.119,0-21.686,9.439-21.686,15.016v2.054h9.979l2.057.014V2211c.04-.621,1.9-3.777,9.776-3.777,5.734,0,8.642,1.342,8.642,3.986,0,1.491,0,3.986-9.083,3.986H452.7v11.281h10.612c4.536,0,6.568,1.1,7.474,2.029a2.859,2.859,0,0,1,.854,2.1C471.554,2234.642,467.913,2236.775,461.109,2236.775Z" transform="translate(-5836.583 6686.251)" fill="#fff"></path><path id="Path_469" data-name="Path 469" d="M621.821,2248.057c12.783,0,21.372-7.2,21.372-17.91,0-8.477-6.394-17.03-20.679-17.03a24.112,24.112,0,0,0-11.319,2.654c1.383-5.45,5.39-8.55,11.131-8.55,5.1,0,7.56,2.837,7.644,3.738l.175,1.862h12.431l-.142-2.187c-.369-5.681-6.171-14.695-20.172-14.695-18.049,0-24.454,14.428-24.454,26.783,0,8.063,2.51,14.694,7.259,19.175A24.165,24.165,0,0,0,621.821,2248.057Zm-10.763-19.524.063-.055a14.768,14.768,0,0,1,10.763-4.33c5.365,0,8.831,2.454,8.831,6.251,0,1.5-.655,6.377-9.083,6.377A10.249,10.249,0,0,1,611.058,2228.532Z" transform="translate(-5949.876 6686.251)" fill="#fff"></path><path id="Path_470" data-name="Path 470" d="M801.057,2246.308a16.98,16.98,0,1,0,16.976-16.589A16.8,16.8,0,0,0,801.057,2246.308Z" transform="translate(-6094.814 6662.162)" fill="#fff"></path><path id="Path_471" data-name="Path 471" d="M796.466,2248.934a25.877,25.877,0,0,0,20.738-41.363l3.579.067V2203.9l-7.754-.1a1.856,1.856,0,0,0-1.867,1.8l-.447,7.3h3.71l.061-3.147a24.128,24.128,0,0,1,4.127,13.3A22.148,22.148,0,1,1,796.47,2200.9a21.448,21.448,0,0,1,9.92,2.352l.93.47,1.681-3.339-.927-.469a25.354,25.354,0,0,0-11.608-2.751,25.883,25.883,0,0,0,0,51.767Z" transform="translate(-6073.084 6685.376)" fill="#00c165"></path></g></svg> 